<svg xmlns="http://www.w3.org/2000/svg" xmlns:xlink="http://www.w3.org/1999/xlink" version="1.1" x="0px" y="0px" viewBox="0 0 64 80" style="enable-background:new 0 0 64 64;" xml:space="preserve"><path d="M39.86,37.74c2.38-2.87,3.68-6.44,3.68-10.22c0-8.83-7.19-16.02-16.02-16.02S11.5,18.69,11.5,27.52s7.19,16.02,16.02,16.02  c1.53,0,3.05-0.22,4.51-0.64c0.79-0.23,1.25-1.07,1.02-1.86c-0.23-0.79-1.06-1.25-1.86-1.02c-1.18,0.35-2.42,0.52-3.67,0.52  c-7.18,0-13.02-5.84-13.02-13.02S20.34,14.5,27.52,14.5s13.02,5.84,13.02,13.02c0,3.48-1.35,6.75-3.81,9.21  c-0.59,0.59-0.59,1.54,0,2.12l13.22,13.22c0.29,0.29,0.68,0.44,1.06,0.44s0.77-0.15,1.06-0.44c0.59-0.59,0.59-1.54,0-2.12  L39.86,37.74z"/><text x="0" y="79" fill="#000000" font-size="5px" font-weight="bold" font-family="'Helvetica Neue', Helvetica, Arial-Unicode, Arial, Sans-serif">Created by Whales Factory</text><text x="0" y="84" fill="#000000" font-size="5px" font-weight="bold" font-family="'Helvetica Neue', Helvetica, Arial-Unicode, Arial, Sans-serif">from the Noun Project</text></svg>